<?xml version="1.0" encoding="utf-8"?>
<!-- Generator: Adobe Illustrator 24.1.2, SVG Export Plug-In . SVG Version: 6.00 Build 0)  -->
<svg version="1.1" id="Lager_1" xmlns="http://www.w3.org/2000/svg" xmlns:xlink="http://www.w3.org/1999/xlink" x="0px" y="0px"
	 viewBox="0 0 512 512" style="enable-background:new 0 0 512 512;" xml:space="preserve">
<style type="text/css">
	.st0{fill:#FFFFFF;}
</style>
<path class="st0" d="M495,225.1l-17.2,1.1c-5.3-39.5-20.8-75.6-43.9-105.8l13-11.4c6.9-6.1,7.2-16.8,0.7-23.3l-21.2-21.2
	c-6.5-6.5-17.2-6.2-23.3,0.7l-11.4,12.9C361.5,55,325.4,39.5,285.9,34.2l1.1-17.2c0.6-9.2-6.7-17-16-17H241c-9.2,0-16.5,7.8-16,17
	l1.1,17.2c-39.5,5.3-75.6,20.8-105.8,43.9l-11.4-12.9c-6.1-6.9-16.8-7.2-23.3-0.7L64.4,85.6c-6.5,6.5-6.2,17.2,0.7,23.3l12.9,11.4
	C55,150.5,39.5,186.6,34.2,226.1L17,225.1c-9.2-0.6-17,6.7-17,16V271c0,9.2,7.8,16.5,17,16l17.2-1.1c5.3,39.5,20.8,75.6,43.9,105.8
	l-12.9,11.4c-6.9,6.1-7.2,16.8-0.7,23.3l21.2,21.2c6.5,6.5,17.2,6.2,23.3-0.7l11.4-13c30.2,23.1,66.4,38.6,105.8,43.9l-1.1,17.2
	c-0.6,9.2,6.7,17,16,17H271c9.2,0,16.5-7.8,16-17l-1.1-17.2c39.5-5.3,75.6-20.8,105.8-43.9l11.4,13c6.1,6.9,16.8,7.2,23.3,0.7
	l21.2-21.2c6.5-6.5,6.2-17.2-0.7-23.3l-13-11.4c23.1-30.2,38.6-66.4,43.9-105.8l17.2,1.1c9.2,0.6,17-6.7,17-16V241
	C512,231.8,504.2,224.5,495,225.1L495,225.1z M281.8,98.6c24.8,4.1,47.6,13.7,67.2,27.8l-42.6,48.3c-8.7-5.4-18.3-9.5-28.6-11.9
	L281.8,98.6L281.8,98.6z M230.2,98.6l4,64.1c-10.3,2.4-19.9,6.5-28.6,11.9l-42.6-48.3C182.5,112.3,205.4,102.7,230.2,98.6z
	 M126.4,162.9l48.3,42.6c-5.4,8.7-9.5,18.3-12,28.6l-64.1-4C102.7,205.4,112.3,182.5,126.4,162.9L126.4,162.9z M98.6,281.8l64.1-4
	c2.4,10.3,6.5,19.9,11.9,28.6l-48.3,42.6C112.3,329.5,102.7,306.6,98.6,281.8L98.6,281.8z M230.2,413.4
	c-24.8-4.1-47.6-13.7-67.2-27.8l42.6-48.3c8.7,5.4,18.3,9.5,28.6,12L230.2,413.4L230.2,413.4z M256,288c-17.7,0-32-14.3-32-32
	s14.3-32,32-32s32,14.3,32,32S273.7,288,256,288z M281.8,413.4l-4-64.1c10.3-2.4,19.9-6.5,28.6-12l42.6,48.3
	C329.5,399.7,306.6,409.3,281.8,413.4z M385.6,349.1l-48.3-42.6c5.4-8.7,9.5-18.3,12-28.6l64.1,4
	C409.3,306.7,399.7,329.5,385.6,349.1L385.6,349.1z M349.3,234.2c-2.4-10.3-6.5-19.9-12-28.6l48.3-42.6
	c14.1,19.6,23.7,42.4,27.8,67.2L349.3,234.2L349.3,234.2z"/>
</svg>
